<?xml version="1.0" encoding="UTF-8" standalone="no"?><svg xmlns="http://www.w3.org/2000/svg" xmlns:xlink="http://www.w3.org/1999/xlink" contentScriptType="application/ecmascript" contentStyleType="text/css" height="86px" preserveAspectRatio="none" style="width:366px;height:86px;" version="1.1" viewBox="0 0 366 86" width="366px" zoomAndPan="magnify"><defs><filter height="300%" id="fj4q7v3vuvchw" width="300%" x="-1" y="-1"><feGaussianBlur result="blurOut" stdDeviation="2.0"/><feColorMatrix in="blurOut" result="blurOut2" type="matrix" values="0 0 0 0 0 0 0 0 0 0 0 0 0 0 0 0 0 0 .4 0"/><feOffset dx="4.0" dy="4.0" in="blurOut2" result="blurOut3"/><feBlend in="SourceGraphic" in2="blurOut3" mode="normal"/></filter></defs><g><!--MD5=[8c16f216382c5728682191c9f802f73a]
class SampleRequestDto--><rect codeLine="1" fill="#FEFECE" filter="url(#fj4q7v3vuvchw)" height="60.8047" id="SampleRequestDto" style="stroke: #A80036; stroke-width: 1.5;" width="147" x="7" y="7"/><ellipse cx="22" cy="23" fill="#ADD1B2" rx="11" ry="11" style="stroke: #A80036; stroke-width: 1.0;"/><path d="M24.3438,18.6719 C23.4063,18.2344 22.8125,18.0938 21.9375,18.0938 C19.3125,18.0938 17.3125,20.1719 17.3125,22.8906 L17.3125,24.0156 C17.3125,26.5938 19.4219,28.4844 22.3125,28.4844 C23.5313,28.4844 24.6875,28.1875 25.4375,27.6406 C26.0156,27.2344 26.3438,26.7813 26.3438,26.3906 C26.3438,25.9375 25.9531,25.5469 25.4844,25.5469 C25.2656,25.5469 25.0625,25.625 24.875,25.8125 C24.4219,26.2969 24.4219,26.2969 24.2344,26.3906 C23.8125,26.6563 23.125,26.7813 22.3594,26.7813 C20.3125,26.7813 19.0156,25.6875 19.0156,23.9844 L19.0156,22.8906 C19.0156,21.1094 20.2656,19.7969 22,19.7969 C22.5781,19.7969 23.1875,19.9531 23.6563,20.2031 C24.1406,20.4844 24.3125,20.7031 24.4063,21.1094 C24.4688,21.5156 24.5,21.6406 24.6406,21.7656 C24.7813,21.9063 25.0156,22.0156 25.2344,22.0156 C25.5,22.0156 25.7656,21.875 25.9375,21.6563 C26.0469,21.5 26.0781,21.3125 26.0781,20.8906 L26.0781,19.4688 C26.0781,19.0313 26.0625,18.9063 25.9688,18.75 C25.8125,18.4844 25.5313,18.3438 25.2344,18.3438 C24.9375,18.3438 24.7344,18.4375 24.5156,18.75 L24.3438,18.6719 Z "/><text fill="#000000" font-family="sans-serif" font-size="12" lengthAdjust="spacingAndGlyphs" textLength="115" x="36" y="27.1543">SampleRequestDto</text><line style="stroke: #A80036; stroke-width: 1.5;" x1="8" x2="153" y1="39" y2="39"/><ellipse cx="18" cy="50" fill="none" rx="3" ry="3" style="stroke: #038048; stroke-width: 1.0;"/><text fill="#000000" font-family="sans-serif" font-size="11" lengthAdjust="spacingAndGlyphs" textLength="62" x="27" y="53.2104">ping: string</text><line style="stroke: #A80036; stroke-width: 1.5;" x1="8" x2="153" y1="59.8047" y2="59.8047"/><!--MD5=[2f02e9aafc076b3238b74ca667cd0b56]
class SampleResponseDto--><rect codeLine="4" fill="#FEFECE" filter="url(#fj4q7v3vuvchw)" height="60.8047" id="SampleResponseDto" style="stroke: #A80036; stroke-width: 1.5;" width="158" x="189.5" y="7"/><ellipse cx="204.5" cy="23" fill="#ADD1B2" rx="11" ry="11" style="stroke: #A80036; stroke-width: 1.0;"/><path d="M206.8438,18.6719 C205.9063,18.2344 205.3125,18.0938 204.4375,18.0938 C201.8125,18.0938 199.8125,20.1719 199.8125,22.8906 L199.8125,24.0156 C199.8125,26.5938 201.9219,28.4844 204.8125,28.4844 C206.0313,28.4844 207.1875,28.1875 207.9375,27.6406 C208.5156,27.2344 208.8438,26.7813 208.8438,26.3906 C208.8438,25.9375 208.4531,25.5469 207.9844,25.5469 C207.7656,25.5469 207.5625,25.625 207.375,25.8125 C206.9219,26.2969 206.9219,26.2969 206.7344,26.3906 C206.3125,26.6563 205.625,26.7813 204.8594,26.7813 C202.8125,26.7813 201.5156,25.6875 201.5156,23.9844 L201.5156,22.8906 C201.5156,21.1094 202.7656,19.7969 204.5,19.7969 C205.0781,19.7969 205.6875,19.9531 206.1563,20.2031 C206.6406,20.4844 206.8125,20.7031 206.9063,21.1094 C206.9688,21.5156 207,21.6406 207.1406,21.7656 C207.2813,21.9063 207.5156,22.0156 207.7344,22.0156 C208,22.0156 208.2656,21.875 208.4375,21.6563 C208.5469,21.5 208.5781,21.3125 208.5781,20.8906 L208.5781,19.4688 C208.5781,19.0313 208.5625,18.9063 208.4688,18.75 C208.3125,18.4844 208.0313,18.3438 207.7344,18.3438 C207.4375,18.3438 207.2344,18.4375 207.0156,18.75 L206.8438,18.6719 Z "/><text fill="#000000" font-family="sans-serif" font-size="12" lengthAdjust="spacingAndGlyphs" textLength="126" x="218.5" y="27.1543">SampleResponseDto</text><line style="stroke: #A80036; stroke-width: 1.5;" x1="190.5" x2="346.5" y1="39" y2="39"/><ellipse cx="200.5" cy="50" fill="none" rx="3" ry="3" style="stroke: #038048; stroke-width: 1.0;"/><text fill="#000000" font-family="sans-serif" font-size="11" lengthAdjust="spacingAndGlyphs" textLength="66" x="209.5" y="53.2104">pong: string</text><line style="stroke: #A80036; stroke-width: 1.5;" x1="190.5" x2="346.5" y1="59.8047" y2="59.8047"/><!--MD5=[8922c6240569b2431725531d4462962e]
@startuml
class SampleRequestDto {
    +ping: string
}
class SampleResponseDto {
    +pong: string
}
@enduml

PlantUML version 1.2020.16beta7(Unknown compile time)
(GPL source distribution)
Java Runtime: Java(TM) SE Runtime Environment
JVM: Java HotSpot(TM) 64-Bit Server VM
Default Encoding: UTF-8
Language: en
Country: US
--></g></svg>